<svg xmlns="http://www.w3.org/2000/svg" xmlns:xlink="http://www.w3.org/1999/xlink" width="98" zoomAndPan="magnify" viewBox="0 0 73.5 73.499996" height="98" preserveAspectRatio="xMidYMid meet" version="1.0"><defs><clipPath id="32f3d5f502"><path d="M 4.765625 4.765625 L 68.234375 4.765625 L 68.234375 68.234375 L 4.765625 68.234375 Z M 4.765625 4.765625 " clip-rule="nonzero"/></clipPath><clipPath id="ea61c28e0e"><path d="M 36.5 4.765625 C 18.976562 4.765625 4.765625 18.976562 4.765625 36.5 C 4.765625 54.027344 18.976562 68.234375 36.5 68.234375 C 54.027344 68.234375 68.234375 54.027344 68.234375 36.5 C 68.234375 18.976562 54.027344 4.765625 36.5 4.765625 Z M 36.5 4.765625 " clip-rule="nonzero"/></clipPath><clipPath id="bf5d62059f"><path d="M 9 13.085938 L 63 13.085938 L 63 44 L 9 44 Z M 9 13.085938 " clip-rule="nonzero"/></clipPath><clipPath id="ae2e304207"><path d="M 24.242188 34.484375 L 44.3125 34.484375 L 44.3125 59.613281 L 24.242188 59.613281 Z M 24.242188 34.484375 " clip-rule="nonzero"/></clipPath><clipPath id="4497fe10b3"><path d="M 33.75 59.390625 L 24.359375 50 C 24.273438 49.910156 24.246094 49.78125 24.292969 49.664062 C 24.339844 49.546875 24.453125 49.472656 24.578125 49.472656 L 28.308594 49.472656 C 28.722656 49.472656 29.054688 49.140625 29.054688 48.730469 L 29.054688 35.226562 C 29.054688 34.816406 29.390625 34.484375 29.800781 34.484375 L 38.753906 34.484375 C 39.164062 34.484375 39.5 34.816406 39.5 35.226562 L 39.5 48.730469 C 39.5 49.140625 39.832031 49.472656 40.246094 49.472656 L 43.976562 49.472656 C 44.101562 49.472656 44.214844 49.546875 44.261719 49.664062 C 44.308594 49.78125 44.28125 49.910156 44.195312 50 L 34.804688 59.390625 C 34.511719 59.679688 34.042969 59.679688 33.75 59.390625 Z M 33.75 59.390625 " clip-rule="nonzero"/></clipPath></defs><g clip-path="url(#32f3d5f502)"><g clip-path="url(#ea61c28e0e)"><path fill="#ffffff" d="M 4.765625 4.765625 L 68.234375 4.765625 L 68.234375 68.234375 L 4.765625 68.234375 Z M 4.765625 4.765625 " fill-opacity="1" fill-rule="nonzero"/></g></g><g clip-path="url(#bf5d62059f)"><path fill="#292f33" d="M 48.910156 15.707031 C 46.582031 15.707031 44.390625 16.289062 42.464844 17.3125 C 40.335938 14.742188 37.121094 13.109375 33.523438 13.109375 C 27.429688 13.109375 22.4375 17.8125 21.960938 23.789062 C 21.222656 23.609375 20.453125 23.507812 19.660156 23.507812 C 14.207031 23.507812 9.78125 27.929688 9.78125 33.386719 C 9.78125 38.839844 14.207031 43.265625 19.660156 43.265625 C 21.4375 43.265625 47.601562 43.265625 48.910156 43.265625 C 56.523438 43.265625 62.691406 37.097656 62.691406 29.488281 C 62.691406 21.875 56.523438 15.707031 48.910156 15.707031 Z M 48.910156 15.707031 " fill-opacity="1" fill-rule="nonzero"/></g><g clip-path="url(#ae2e304207)"><g clip-path="url(#4497fe10b3)"><path fill="#292f33" d="M 23.832031 34.484375 L 44.722656 34.484375 L 44.722656 59.941406 L 23.832031 59.941406 Z M 23.832031 34.484375 " fill-opacity="1" fill-rule="nonzero"/></g></g></svg>