<svg xmlns="http://www.w3.org/2000/svg" xmlns:xlink="http://www.w3.org/1999/xlink" width="60" zoomAndPan="magnify" viewBox="0 0 45 44.999999" height="60" preserveAspectRatio="xMidYMid meet" version="1.0"><defs><clipPath id="2564a768c0"><path d="M 16.734375 12.980469 L 33.730469 12.980469 L 33.730469 32 L 16.734375 32 Z M 16.734375 12.980469 " clip-rule="nonzero"/></clipPath><clipPath id="6c14ece2d2"><path d="M 33.0625 23.617188 L 18.6875 31.828125 C 18.285156 32.058594 17.789062 32.058594 17.386719 31.824219 C 16.980469 31.589844 16.734375 31.160156 16.734375 30.695312 L 16.734375 14.304688 C 16.734375 13.839844 16.980469 13.40625 17.386719 13.175781 C 17.789062 12.941406 18.285156 12.9375 18.6875 13.167969 L 33.0625 21.382812 C 33.460938 21.613281 33.707031 22.039062 33.707031 22.5 C 33.707031 22.960938 33.460938 23.386719 33.0625 23.617188 Z M 33.0625 23.617188 " clip-rule="nonzero"/></clipPath></defs><g clip-path="url(#2564a768c0)"><g clip-path="url(#6c14ece2d2)"><path fill="#ffffff" d="M 35.015625 12.054688 L 35.015625 32.976562 L 16.734375 32.976562 L 16.734375 12.054688 Z M 35.015625 12.054688 " fill-opacity="1" fill-rule="nonzero"/></g></g></svg>