<svg xmlns="http://www.w3.org/2000/svg" xmlns:xlink="http://www.w3.org/1999/xlink" width="98" zoomAndPan="magnify" viewBox="0 0 73.5 73.499996" height="98" preserveAspectRatio="xMidYMid meet" version="1.0"><defs><clipPath id="ff51b9f270"><path d="M 12.875 20.84375 L 60.214844 20.84375 L 60.214844 52.160156 L 12.875 52.160156 Z M 12.875 20.84375 " clip-rule="nonzero"/></clipPath><clipPath id="d5f1924325"><path d="M 17.347656 20.84375 L 55.65625 20.84375 C 58.125 20.84375 60.125 22.84375 60.125 25.3125 L 60.125 47.691406 C 60.125 50.15625 58.125 52.160156 55.65625 52.160156 L 17.347656 52.160156 C 14.878906 52.160156 12.875 50.15625 12.875 47.691406 L 12.875 25.3125 C 12.875 22.84375 14.878906 20.84375 17.347656 20.84375 Z M 17.347656 20.84375 " clip-rule="nonzero"/></clipPath><clipPath id="f4c5155e54"><path d="M 29.289062 26.140625 L 47.414062 26.140625 L 47.414062 46.886719 L 29.289062 46.886719 Z M 29.289062 26.140625 " clip-rule="nonzero"/></clipPath><clipPath id="83576c6b01"><path d="M 47.414062 36.5 L 29.289062 46.859375 L 29.289062 26.140625 Z M 47.414062 36.5 " clip-rule="nonzero"/></clipPath></defs><g clip-path="url(#ff51b9f270)"><g clip-path="url(#d5f1924325)"><path fill="#ee1d52" d="M 12.875 20.84375 L 60.09375 20.84375 L 60.09375 52.160156 L 12.875 52.160156 Z M 12.875 20.84375 " fill-opacity="1" fill-rule="nonzero"/></g></g><g clip-path="url(#f4c5155e54)"><g clip-path="url(#83576c6b01)"><path fill="#ffffff" d="M 47.414062 26.140625 L 47.414062 46.886719 L 29.289062 46.886719 L 29.289062 26.140625 Z M 47.414062 26.140625 " fill-opacity="1" fill-rule="nonzero"/></g></g></svg>