<svg xmlns="http://www.w3.org/2000/svg" xmlns:xlink="http://www.w3.org/1999/xlink" width="60" zoomAndPan="magnify" viewBox="0 0 45 44.999999" height="60" preserveAspectRatio="xMidYMid meet" version="1.0"><defs><clipPath id="f4a5c6f61e"><path d="M 16.199219 12.054688 L 22.5 12.054688 L 22.5 32.949219 L 16.199219 32.949219 Z M 16.199219 12.054688 " clip-rule="nonzero"/></clipPath><clipPath id="241cff837e"><path d="M 16.949219 12.054688 L 21.75 12.054688 C 22.164062 12.054688 22.5 12.390625 22.5 12.804688 L 22.5 32.195312 C 22.5 32.609375 22.164062 32.945312 21.75 32.945312 L 16.949219 32.945312 C 16.535156 32.945312 16.199219 32.609375 16.199219 32.195312 L 16.199219 12.804688 C 16.199219 12.390625 16.535156 12.054688 16.949219 12.054688 Z M 16.949219 12.054688 " clip-rule="nonzero"/></clipPath><clipPath id="63910c4093"><path d="M 25.882812 12.054688 L 32.183594 12.054688 L 32.183594 32.949219 L 25.882812 32.949219 Z M 25.882812 12.054688 " clip-rule="nonzero"/></clipPath><clipPath id="8b74761050"><path d="M 26.632812 12.054688 L 31.433594 12.054688 C 31.847656 12.054688 32.183594 12.390625 32.183594 12.804688 L 32.183594 32.195312 C 32.183594 32.609375 31.847656 32.945312 31.433594 32.945312 L 26.632812 32.945312 C 26.21875 32.945312 25.882812 32.609375 25.882812 32.195312 L 25.882812 12.804688 C 25.882812 12.390625 26.21875 12.054688 26.632812 12.054688 Z M 26.632812 12.054688 " clip-rule="nonzero"/></clipPath></defs><g clip-path="url(#f4a5c6f61e)"><g clip-path="url(#241cff837e)"><path fill="#ffffff" d="M 16.199219 12.054688 L 22.5 12.054688 L 22.5 32.949219 L 16.199219 32.949219 Z M 16.199219 12.054688 " fill-opacity="1" fill-rule="nonzero"/></g></g><g clip-path="url(#63910c4093)"><g clip-path="url(#8b74761050)"><path fill="#ffffff" d="M 25.882812 12.054688 L 32.183594 12.054688 L 32.183594 32.949219 L 25.882812 32.949219 Z M 25.882812 12.054688 " fill-opacity="1" fill-rule="nonzero"/></g></g></svg>