<svg xmlns="http://www.w3.org/2000/svg" xmlns:xlink="http://www.w3.org/1999/xlink" width="98" zoomAndPan="magnify" viewBox="0 0 73.5 73.499996" height="98" preserveAspectRatio="xMidYMid meet" version="1.0"><defs><clipPath id="344f26460d"><path d="M 13 10.285156 L 60.246094 10.285156 L 60.246094 62 L 13 62 Z M 13 10.285156 " clip-rule="nonzero"/></clipPath></defs><g clip-path="url(#344f26460d)"><path fill="#ffffff" d="M 54.597656 11.625 C 47.558594 13.171875 30.929688 16.871094 30.261719 17.027344 C 29.402344 17.230469 27.558594 17.402344 27.558594 19.742188 L 27.558594 50.871094 C 25.625 49.777344 22.671875 49.636719 19.722656 50.699219 C 15.351562 52.277344 12.652344 55.882812 13.695312 58.769531 C 14.742188 61.65625 19.128906 62.71875 23.484375 61.144531 C 27.542969 59.675781 30.167969 56.460938 29.683594 53.695312 L 29.683594 30.15625 C 29.683594 28.859375 29.652344 27.191406 33.023438 26.472656 C 34.570312 26.144531 55.597656 21.460938 55.597656 21.460938 L 55.597656 43.222656 C 53.660156 42.097656 50.679688 41.941406 47.695312 43.019531 C 43.328125 44.59375 40.625 48.203125 41.671875 51.089844 C 42.71875 53.976562 47.105469 55.039062 51.460938 53.460938 C 55.488281 52.011719 58.078125 48.839844 57.671875 46.09375 L 57.71875 46.09375 L 57.71875 16.136719 C 57.71875 12.421875 60.34375 12.328125 60.34375 12.328125 L 60.34375 10.285156 Z M 54.597656 11.625 " fill-opacity="1" fill-rule="nonzero"/></g></svg>