<svg xmlns="http://www.w3.org/2000/svg" xmlns:xlink="http://www.w3.org/1999/xlink" width="98" zoomAndPan="magnify" viewBox="0 0 73.5 73.499996" height="98" preserveAspectRatio="xMidYMid meet" version="1.0"><defs><clipPath id="5cfdc8654f"><path d="M 4.765625 4.765625 L 68.234375 4.765625 L 68.234375 68.234375 L 4.765625 68.234375 Z M 4.765625 4.765625 " clip-rule="nonzero"/></clipPath><clipPath id="594bc23243"><path d="M 36.5 4.765625 C 18.976562 4.765625 4.765625 18.976562 4.765625 36.5 C 4.765625 54.027344 18.976562 68.234375 36.5 68.234375 C 54.027344 68.234375 68.234375 54.027344 68.234375 36.5 C 68.234375 18.976562 54.027344 4.765625 36.5 4.765625 Z M 36.5 4.765625 " clip-rule="nonzero"/></clipPath><clipPath id="64e9ed7886"><path d="M 11.808594 11.808594 L 60.972656 11.808594 L 60.972656 60.972656 L 11.808594 60.972656 Z M 11.808594 11.808594 " clip-rule="nonzero"/></clipPath></defs><g clip-path="url(#5cfdc8654f)"><g clip-path="url(#594bc23243)"><path fill="#ffffff" d="M 4.765625 4.765625 L 68.234375 4.765625 L 68.234375 68.234375 L 4.765625 68.234375 Z M 4.765625 4.765625 " fill-opacity="1" fill-rule="nonzero"/></g></g><g clip-path="url(#64e9ed7886)"><path fill="#292f33" d="M 56.363281 31.78125 L 41 31.78125 L 41 16.417969 C 41 13.871094 38.9375 11.808594 36.390625 11.808594 C 33.84375 11.808594 31.78125 13.871094 31.78125 16.417969 L 31.78125 31.78125 L 16.417969 31.78125 C 13.871094 31.78125 11.808594 33.84375 11.808594 36.390625 C 11.808594 38.9375 13.871094 41 16.417969 41 L 31.78125 41 L 31.78125 56.363281 C 31.78125 58.910156 33.84375 60.972656 36.390625 60.972656 C 38.9375 60.972656 41 58.910156 41 56.363281 L 41 41 L 56.363281 41 C 58.910156 41 60.972656 38.9375 60.972656 36.390625 C 60.972656 33.84375 58.910156 31.78125 56.363281 31.78125 Z M 56.363281 31.78125 " fill-opacity="1" fill-rule="nonzero"/></g></svg>