<svg xmlns="http://www.w3.org/2000/svg" xmlns:xlink="http://www.w3.org/1999/xlink" width="100" zoomAndPan="magnify" viewBox="0 0 75 74.999997" height="100" preserveAspectRatio="xMidYMid meet" version="1.0"><defs><clipPath id="cc5e5392ac"><path d="M 7.5 7.351562 L 67.5 7.351562 L 67.5 67.351562 L 7.5 67.351562 Z M 7.5 7.351562 " clip-rule="nonzero"/></clipPath><clipPath id="e3860112fd"><path d="M 37.5 7.351562 C 20.929688 7.351562 7.5 20.78125 7.5 37.351562 C 7.5 53.917969 20.929688 67.351562 37.5 67.351562 C 54.070312 67.351562 67.5 53.917969 67.5 37.351562 C 67.5 20.78125 54.070312 7.351562 37.5 7.351562 Z M 37.5 7.351562 " clip-rule="nonzero"/></clipPath><clipPath id="db7957d891"><path d="M 16.949219 17.699219 L 55.949219 17.699219 L 55.949219 56.699219 L 16.949219 56.699219 Z M 16.949219 17.699219 " clip-rule="nonzero"/></clipPath></defs><g clip-path="url(#cc5e5392ac)"><g clip-path="url(#e3860112fd)"><path fill="#ffffff" d="M 7.5 7.351562 L 67.5 7.351562 L 67.5 67.351562 L 7.5 67.351562 Z M 7.5 7.351562 " fill-opacity="1" fill-rule="nonzero"/></g></g><g clip-path="url(#db7957d891)"><path fill="#000000" d="M 49.203125 42.882812 C 47.175781 42.882812 45.359375 43.746094 44.074219 45.117188 L 30.996094 37.851562 C 31 37.71875 31.011719 37.585938 31.011719 37.441406 C 31.011719 37.335938 31 37.222656 30.996094 37.117188 L 44.25 29.757812 C 45.523438 31.019531 47.269531 31.796875 49.199219 31.796875 C 53.082031 31.796875 56.234375 28.640625 56.234375 24.75 C 56.234375 20.851562 53.085938 17.695312 49.203125 17.695312 C 45.320312 17.695312 42.171875 20.851562 42.171875 24.75 C 42.171875 24.957031 42.183594 25.164062 42.203125 25.371094 L 29.113281 32.636719 C 27.828125 31.261719 26.011719 30.390625 23.980469 30.390625 C 20.097656 30.390625 16.945312 33.546875 16.945312 37.445312 C 16.945312 41.335938 20.097656 44.496094 23.980469 44.496094 C 25.980469 44.496094 27.78125 43.65625 29.0625 42.308594 L 42.1875 49.597656 C 42.183594 49.710938 42.171875 49.820312 42.171875 49.933594 C 42.171875 53.832031 45.320312 56.984375 49.203125 56.984375 C 53.085938 56.984375 56.234375 53.832031 56.234375 49.933594 C 56.234375 46.039062 53.085938 42.882812 49.203125 42.882812 Z M 49.203125 42.882812 " fill-opacity="1" fill-rule="nonzero"/></g></svg>