<svg xmlns="http://www.w3.org/2000/svg" xmlns:xlink="http://www.w3.org/1999/xlink" width="100" zoomAndPan="magnify" viewBox="0 0 75 74.999997" height="100" preserveAspectRatio="xMidYMid meet" version="1.0"><defs><clipPath id="a1eacccb50"><path d="M 7.5 7.351562 L 67.5 7.351562 L 67.5 67.351562 L 7.5 67.351562 Z M 7.5 7.351562 " clip-rule="nonzero"/></clipPath><clipPath id="43dca25489"><path d="M 37.5 7.351562 C 20.929688 7.351562 7.5 20.78125 7.5 37.351562 C 7.5 53.917969 20.929688 67.351562 37.5 67.351562 C 54.070312 67.351562 67.5 53.917969 67.5 37.351562 C 67.5 20.78125 54.070312 7.351562 37.5 7.351562 Z M 37.5 7.351562 " clip-rule="nonzero"/></clipPath><clipPath id="31c57d15f4"><path d="M 27.050781 22.214844 L 54.128906 22.214844 L 54.128906 52.832031 L 27.050781 52.832031 Z M 27.050781 22.214844 " clip-rule="nonzero"/></clipPath><clipPath id="0097ad352b"><path d="M 53.390625 38.617188 L 29.003906 52.554688 C 28.597656 52.785156 28.101562 52.78125 27.699219 52.546875 C 27.296875 52.316406 27.050781 51.882812 27.050781 51.417969 L 27.050781 23.582031 C 27.050781 23.113281 27.296875 22.683594 27.699219 22.449219 C 28.101562 22.21875 28.597656 22.214844 29.003906 22.445312 L 53.390625 36.382812 C 53.792969 36.613281 54.039062 37.039062 54.039062 37.5 C 54.039062 37.960938 53.792969 38.386719 53.390625 38.617188 Z M 53.390625 38.617188 " clip-rule="nonzero"/></clipPath></defs><g clip-path="url(#a1eacccb50)"><g clip-path="url(#43dca25489)"><path fill="#ffffff" d="M 7.5 7.351562 L 67.5 7.351562 L 67.5 67.351562 L 7.5 67.351562 Z M 7.5 7.351562 " fill-opacity="1" fill-rule="nonzero"/></g></g><g clip-path="url(#31c57d15f4)"><g clip-path="url(#0097ad352b)"><path fill="#010101" d="M 55.34375 21.332031 L 55.34375 53.714844 L 27.050781 53.714844 L 27.050781 21.332031 Z M 55.34375 21.332031 " fill-opacity="1" fill-rule="nonzero"/></g></g></svg>