<svg xmlns="http://www.w3.org/2000/svg" xmlns:xlink="http://www.w3.org/1999/xlink" width="98" zoomAndPan="magnify" viewBox="0 0 73.5 73.499996" height="98" preserveAspectRatio="xMidYMid meet" version="1.0"><defs><clipPath id="c129300f73"><path d="M 17.617188 21 L 35 21 L 35 52 L 17.617188 52 Z M 17.617188 21 " clip-rule="nonzero"/></clipPath><clipPath id="5f94db9bc6"><path d="M 46 17.617188 L 55.609375 17.617188 L 55.609375 55.609375 L 46 55.609375 Z M 46 17.617188 " clip-rule="nonzero"/></clipPath></defs><g clip-path="url(#c129300f73)"><path fill="#f4f4f4" d="M 22.945312 30.117188 L 17.675781 30.117188 L 17.675781 43.027344 L 22.945312 43.027344 L 32.882812 51.160156 C 32.882812 51.160156 34.691406 52.855469 34.691406 51.121094 C 34.691406 49.390625 34.691406 23.378906 34.691406 21.796875 C 34.691406 20.441406 33.070312 21.757812 33.070312 21.757812 Z M 22.945312 30.117188 " fill-opacity="1" fill-rule="nonzero"/></g><path fill="#f4f4f4" d="M 40.335938 27.59375 C 39.808594 27.027344 38.980469 27.027344 38.453125 27.59375 C 37.925781 28.160156 37.925781 29.101562 38.453125 29.664062 C 40.1875 31.585938 41.015625 34.03125 41.050781 36.515625 C 41.050781 39 40.1875 41.484375 38.453125 43.40625 C 37.925781 43.96875 37.925781 44.910156 38.453125 45.476562 C 38.71875 45.777344 39.058594 45.890625 39.394531 45.890625 C 39.734375 45.890625 40.074219 45.738281 40.335938 45.476562 C 42.558594 42.992188 43.6875 39.753906 43.6875 36.515625 C 43.6875 33.316406 42.59375 30.078125 40.335938 27.59375 Z M 40.335938 27.59375 " fill-opacity="1" fill-rule="nonzero"/><path fill="#f4f4f4" d="M 43.949219 22.964844 C 43.425781 22.359375 42.59375 22.359375 42.070312 22.964844 C 41.542969 23.527344 41.542969 24.46875 42.070312 25.035156 C 44.96875 28.234375 46.398438 32.375 46.398438 36.554688 C 46.398438 40.730469 44.96875 44.910156 42.070312 48.109375 C 41.542969 48.675781 41.542969 49.617188 42.070312 50.179688 C 42.332031 50.445312 42.671875 50.59375 43.007812 50.59375 C 43.347656 50.59375 43.6875 50.445312 43.949219 50.179688 C 47.375 46.417969 49.070312 41.449219 49.070312 36.515625 C 49.109375 31.660156 47.375 26.726562 43.949219 22.964844 Z M 43.949219 22.964844 " fill-opacity="1" fill-rule="nonzero"/><g clip-path="url(#5f94db9bc6)"><path fill="#f4f4f4" d="M 48.429688 18.21875 C 47.902344 17.617188 47.074219 17.617188 46.546875 18.21875 C 46.019531 18.785156 46.019531 19.726562 46.546875 20.289062 C 50.652344 24.808594 52.683594 30.679688 52.683594 36.554688 C 52.683594 42.464844 50.652344 48.375 46.546875 52.890625 C 46.019531 53.457031 46.019531 54.398438 46.546875 54.960938 C 46.8125 55.261719 47.152344 55.375 47.488281 55.375 C 47.828125 55.375 48.167969 55.226562 48.429688 54.960938 C 53.023438 49.878906 55.320312 43.21875 55.320312 36.554688 C 55.320312 29.929688 53.023438 23.265625 48.429688 18.21875 Z M 48.429688 18.21875 " fill-opacity="1" fill-rule="nonzero"/></g></svg>