<svg xmlns="http://www.w3.org/2000/svg" xmlns:xlink="http://www.w3.org/1999/xlink" width="98" zoomAndPan="magnify" viewBox="0 0 73.5 73.499996" height="98" preserveAspectRatio="xMidYMid meet" version="1.0"><defs><clipPath id="cb0f1abe29"><path d="M 1.480469 13.292969 L 71.65625 13.292969 L 71.65625 59.710938 L 1.480469 59.710938 Z M 1.480469 13.292969 " clip-rule="nonzero"/></clipPath><clipPath id="3b96667ec8"><path d="M 11.910156 13.292969 L 61.09375 13.292969 C 66.855469 13.292969 71.523438 17.960938 71.523438 23.71875 L 71.523438 49.285156 C 71.523438 55.042969 66.855469 59.710938 61.09375 59.710938 L 11.910156 59.710938 C 6.148438 59.710938 1.480469 55.042969 1.480469 49.285156 L 1.480469 23.71875 C 1.480469 17.960938 6.148438 13.292969 11.910156 13.292969 Z M 11.910156 13.292969 " clip-rule="nonzero"/></clipPath><clipPath id="1ed2251a4b"><path d="M 25.800781 21.144531 L 52.675781 21.144531 L 52.675781 51.902344 L 25.800781 51.902344 Z M 25.800781 21.144531 " clip-rule="nonzero"/></clipPath><clipPath id="db6c9a5fc7"><path d="M 52.675781 36.5 L 25.800781 51.859375 L 25.800781 21.144531 Z M 52.675781 36.5 " clip-rule="nonzero"/></clipPath></defs><g clip-path="url(#cb0f1abe29)"><g clip-path="url(#3b96667ec8)"><path fill="#ffffff" d="M 1.480469 13.292969 L 71.472656 13.292969 L 71.472656 59.710938 L 1.480469 59.710938 Z M 1.480469 13.292969 " fill-opacity="1" fill-rule="nonzero"/></g></g><g clip-path="url(#1ed2251a4b)"><g clip-path="url(#db6c9a5fc7)"><path fill="#010101" d="M 52.675781 21.144531 L 52.675781 51.902344 L 25.800781 51.902344 L 25.800781 21.144531 Z M 52.675781 21.144531 " fill-opacity="1" fill-rule="nonzero"/></g></g></svg>