<svg xmlns="http://www.w3.org/2000/svg" xmlns:xlink="http://www.w3.org/1999/xlink" width="190" zoomAndPan="magnify" viewBox="0 0 142.5 30.000001" height="40" preserveAspectRatio="xMidYMid meet" version="1.0"><defs><g/></defs><g fill="#010101" fill-opacity="1"><g transform="translate(2.056449, 21.588782)"><g><path d="M 11.15625 -12.042969 L 11.15625 -15.660156 L 1.109375 -15.660156 L 1.109375 0 L 4.878906 0 L 4.878906 -5.613281 L 10.800781 -5.613281 L 10.800781 -9.136719 L 4.878906 -9.136719 L 4.878906 -12.042969 Z M 11.15625 -12.042969 "/></g></g></g><g fill="#010101" fill-opacity="1"><g transform="translate(14.188895, 21.588782)"><g><path d="M 6.386719 -15.703125 L 0.175781 0 L 4.238281 0 L 5.101562 -2.285156 L 10.402344 -2.285156 L 11.269531 0 L 15.546875 0 L 9.09375 -15.703125 Z M 7.761719 -9.449219 L 8.960938 -6.078125 L 9.050781 -5.8125 L 6.476562 -5.8125 L 6.609375 -6.167969 Z M 7.761719 -9.449219 "/></g></g></g><g fill="#010101" fill-opacity="1"><g transform="translate(29.714875, 21.588782)"><g><path d="M 0.664062 0 L 12.308594 0 L 12.308594 -3.503906 L 5.679688 -3.503906 L 12.222656 -12.886719 L 12.222656 -15.660156 L 0.664062 -15.660156 L 0.664062 -12.175781 L 7.363281 -12.175781 L 0.664062 -2.660156 Z M 0.664062 0 "/></g></g></g><g fill="#010101" fill-opacity="1"><g transform="translate(42.934141, 21.588782)"><g><path d="M 1.109375 -15.660156 L 1.109375 0 L 11.355469 0 L 11.355469 -3.660156 L 4.925781 -3.660156 L 4.925781 -6.144531 L 11.203125 -6.144531 L 11.203125 -9.824219 L 4.925781 -9.824219 L 4.925781 -12 L 11.335938 -12 L 11.335938 -15.660156 Z M 1.109375 -15.660156 "/></g></g></g><g fill="#010101" fill-opacity="1"><g transform="translate(55.990651, 21.287889)"><g><path d="M 1.082031 -2.210938 C 2.28125 -0.753906 4.230469 0.28125 6.816406 0.28125 C 11.046875 0.28125 12.386719 -2.140625 12.386719 -4.160156 C 12.386719 -7.335938 9.613281 -8.132812 7.074219 -8.863281 C 4.9375 -9.425781 2.984375 -9.96875 2.984375 -11.824219 C 2.984375 -13.515625 4.558594 -14.714844 6.652344 -14.714844 C 8.414062 -14.714844 10.015625 -14.105469 11.144531 -12.742188 L 12.035156 -13.726562 C 10.8125 -15.117188 9.074219 -15.9375 6.722656 -15.9375 C 3.878906 -15.9375 1.574219 -14.316406 1.574219 -11.753906 C 1.574219 -8.863281 4.207031 -8.15625 6.675781 -7.476562 C 8.886719 -6.886719 10.976562 -6.277344 10.976562 -4.066406 C 10.976562 -2.726562 10.0625 -0.941406 6.839844 -0.941406 C 4.609375 -0.941406 2.960938 -2.046875 1.949219 -3.21875 Z M 1.082031 -2.210938 "/></g></g></g><g fill="#010101" fill-opacity="1"><g transform="translate(69.646853, 21.287889)"><g><path d="M 1.363281 -7.828125 C 1.363281 -3.242188 4.371094 0.28125 8.980469 0.28125 C 13.5625 0.28125 16.597656 -3.242188 16.597656 -7.828125 C 16.597656 -12.410156 13.5625 -15.9375 8.980469 -15.9375 C 4.371094 -15.9375 1.363281 -12.410156 1.363281 -7.828125 Z M 15.1875 -7.828125 C 15.1875 -3.878906 12.742188 -0.941406 8.980469 -0.941406 C 5.171875 -0.941406 2.773438 -3.878906 2.773438 -7.828125 C 2.773438 -11.824219 5.171875 -14.714844 8.980469 -14.714844 C 12.742188 -14.714844 15.1875 -11.824219 15.1875 -7.828125 Z M 15.1875 -7.828125 "/></g></g></g><g fill="#010101" fill-opacity="1"><g transform="translate(87.604405, 21.287889)"><g><path d="M 1.949219 -6.019531 C 1.949219 -2.164062 4.042969 0.28125 8.0625 0.28125 C 12.105469 0.28125 14.175781 -2.140625 14.175781 -6.019531 L 14.175781 -15.679688 L 12.8125 -15.679688 L 12.8125 -6.042969 C 12.8125 -2.867188 11.167969 -0.941406 8.0625 -0.941406 C 4.984375 -0.941406 3.316406 -2.867188 3.316406 -6.042969 L 3.316406 -15.679688 L 1.949219 -15.679688 Z M 1.949219 -6.019531 "/></g></g></g><g fill="#010101" fill-opacity="1"><g transform="translate(103.728594, 21.287889)"><g><path d="M 14.480469 0 L 14.480469 -15.679688 L 13.140625 -15.679688 L 13.140625 -2.328125 L 3.316406 -15.679688 L 1.949219 -15.679688 L 1.949219 0 L 3.292969 0 L 3.292969 -13.539062 L 13.164062 0 Z M 14.480469 0 "/></g></g></g><g fill="#010101" fill-opacity="1"><g transform="translate(120.158348, 21.287889)"><g><path d="M 6.957031 0 C 11.824219 0 14.878906 -3.480469 14.878906 -7.828125 C 14.878906 -12.128906 11.824219 -15.679688 6.957031 -15.679688 L 1.949219 -15.679688 L 1.949219 0 Z M 3.292969 -14.457031 L 6.957031 -14.457031 C 11.117188 -14.457031 13.46875 -11.496094 13.46875 -7.828125 C 13.46875 -4.160156 11.09375 -1.222656 6.957031 -1.222656 L 3.292969 -1.222656 Z M 3.292969 -14.457031 "/></g></g></g></svg>